<svg id="dimensions" xmlns="http://www.w3.org/2000/svg" width="11" height="11" viewBox="0 0 11 11">
  <title>active-twy-center</title>
  <g>
    <polyline points="11 0.25 11 0 10.75 0" fill="none" stroke="#00aeef" stroke-miterlimit="10" stroke-width="0.05"/>
    <line x1="10.25" x2="0.5" fill="none" stroke="#00aeef" stroke-miterlimit="10" stroke-width="0.05" stroke-dasharray="0.5 0.5"/>
    <polyline points="0.25 0 0 0 0 0.25" fill="none" stroke="#00aeef" stroke-miterlimit="10" stroke-width="0.05"/>
    <line y1="0.75" y2="10.5" fill="none" stroke="#00aeef" stroke-miterlimit="10" stroke-width="0.05" stroke-dasharray="0.5 0.5"/>
    <polyline points="0 10.75 0 11 0.25 11" fill="none" stroke="#00aeef" stroke-miterlimit="10" stroke-width="0.05"/>
    <line x1="0.75" y1="11" x2="10.5" y2="11" fill="none" stroke="#00aeef" stroke-miterlimit="10" stroke-width="0.05" stroke-dasharray="0.5 0.5"/>
    <polyline points="10.75 11 11 11 11 10.75" fill="none" stroke="#00aeef" stroke-miterlimit="10" stroke-width="0.05"/>
    <line x1="11" y1="10.25" x2="11" y2="0.5" fill="none" stroke="#00aeef" stroke-miterlimit="10" stroke-width="0.05" stroke-dasharray="0.5 0.5"/>
  </g>
  <g id="active_airfield_light_11_copy_2" data-name="active airfield light 11 copy 2">
    <g>
      <path d="M2.8453,3.49a3.1564,3.1564,0,0,0,.05,3.908l1.929-1.929Z" fill="none"/>
      <path d="M5.4131,2.1924a3.1946,3.1946,0,0,0-1.8548.5964l1.973,1.973L7.3975,2.8954A3.19,3.19,0,0,0,5.4131,2.1924Z" fill="none"/>
      <path d="M8.0381,7.2686A3.1965,3.1965,0,0,0,8.0872,3.62L6.2383,5.4688Z" fill="none"/>
      <path d="M7.3371,7.9816L5.5313,6.1758,3.62,8.0873A3.1846,3.1846,0,0,0,7.3371,7.9816Z" fill="none"/>
      <path d="M8.7951,2.9124a4.1284,4.1284,0,0,1-.0533,5.06L9.8848,9.1152a0.4951,0.4951,0,0,1,.1116.1741L10,9.293V1.7072Z" fill="none"/>
      <path d="M8.01,8.7167A4.1375,4.1375,0,0,1,2.912,8.795L1.8848,9.8223l-0.1465.1465H9.2617Z" fill="none"/>
      <path d="M1.7106,1.0037a0.495,0.495,0,0,1,.1742.1116l0.97,0.97a4.1227,4.1227,0,0,1,5.25.1033L9.1777,1.1152l0,0L9.2931,1H1.7069Z" fill="none"/>
      <path d="M1.1777,9.1152L2.1885,8.1044A4.1313,4.1313,0,0,1,2.11,2.8176L1.0313,1.7384V9.2617Z" fill="none"/>
      <path d="M0.0313,0V10.9688H11V0H0.0313ZM8.6348,5.4136a3.1948,3.1948,0,0,1-.5966,1.855l-1.8-1.8L8.0872,3.62A3.2019,3.2019,0,0,1,8.6348,5.4136Zm-6.4424,0A3.1911,3.1911,0,0,1,2.8453,3.49L4.8242,5.4688l-1.929,1.929A3.1894,3.1894,0,0,1,2.1924,5.4136ZM3.5583,2.7888a3.1666,3.1666,0,0,1,3.8392.1067L5.5313,4.7617Zm1.973,3.387L7.3371,7.9816A3.1846,3.1846,0,0,1,3.62,8.0873ZM9.1781,1.115l0,0L8.1044,2.1886a4.1227,4.1227,0,0,0-5.25-.1033l-0.97-.97a0.495,0.495,0,0,0-.1742-0.1116L1.7069,1H9.2931ZM2.11,2.8176a4.1313,4.1313,0,0,0,.0784,5.2868L1.1777,9.1152l-0.1465.1465V1.7384ZM1.8848,9.8223L2.912,8.795A4.1375,4.1375,0,0,0,8.01,8.7167l1.252,1.252H1.7383Zm8.1116-.533a0.4951,0.4951,0,0,0-.1116-0.1741L8.7418,7.9723a4.1284,4.1284,0,0,0,.0533-5.06L10,1.7072V9.293Z" fill="#ed1c24"/>
    </g>
  </g>
</svg>
